<svg width="18" height="20" viewBox="0 0 18 20" fill="none" xmlns="http://www.w3.org/2000/svg">
<path d="M2.264 8.57921C2.20042 8.644 2.12456 8.69547 2.04085 8.73061C1.95715 8.76574 1.86728 8.78384 1.7765 8.78384C1.68572 8.78384 1.59585 8.76574 1.51215 8.73061C1.42844 8.69547 1.35258 8.644 1.289 8.57921C1.15959 8.44755 1.08707 8.27032 1.08707 8.0857C1.08707 7.90109 1.15959 7.72387 1.289 7.59221L7.32 1.50021C8.68 0.444205 10.048 -0.062795 11.41 0.00620503C13.126 0.094205 14.462 0.748205 15.596 1.82121C16.752 2.91521 17.5 4.4762 17.5 6.36821C17.5 7.82021 17.078 9.09821 16.187 10.2322L7.684 18.9922C6.824 19.6972 5.868 20.0382 4.844 19.9972C3.544 19.9432 2.577 19.5232 1.858 18.8122C1.016 17.9812 0.5 16.9602 0.5 15.5872C0.5 14.4952 0.877 13.4872 1.655 12.5412L9.139 4.90021C9.739 4.26021 10.326 3.88021 10.926 3.78821C11.3265 3.72513 11.7363 3.76095 12.1197 3.89254C12.5032 4.02414 12.8487 4.24751 13.126 4.54321C13.658 5.10621 13.886 5.8082 13.806 6.6072C13.751 7.1522 13.528 7.65421 13.118 8.13521L6.238 15.1832C6.17483 15.2482 6.09935 15.3001 6.01596 15.3356C5.93256 15.3712 5.84292 15.3898 5.75226 15.3903C5.6616 15.3909 5.57173 15.3734 5.4879 15.3389C5.40408 15.3043 5.32796 15.2535 5.264 15.1892C5.13378 15.0583 5.06019 14.8815 5.05906 14.6969C5.05794 14.5123 5.12938 14.3347 5.258 14.2022L12.105 7.19021C12.305 6.9552 12.41 6.7182 12.435 6.46621C12.475 6.06621 12.379 5.7712 12.13 5.5082C12.0042 5.37351 11.8471 5.27199 11.6727 5.21267C11.4982 5.15335 11.3118 5.13808 11.13 5.16821C10.887 5.20521 10.547 5.42621 10.128 5.87221L2.675 13.4792C2.138 14.1342 1.878 14.8292 1.878 15.5882C1.878 16.5422 2.223 17.2252 2.82 17.8142C3.295 18.2842 3.94 18.5642 4.9 18.6042C5.58 18.6312 6.21 18.4062 6.758 17.9622L15.155 9.31221C15.8 8.48521 16.122 7.51221 16.122 6.3692C16.122 4.88721 15.545 3.6852 14.654 2.84121C13.744 1.97921 12.704 1.47121 11.341 1.40121C10.333 1.34921 9.276 1.7412 8.224 2.5472L2.264 8.57921Z" fill="white"/>
</svg>
