<svg width="508" height="98" viewBox="0 0 508 98" fill="none" xmlns="http://www.w3.org/2000/svg">
<path d="M38.1417 75.96C43.7737 75.96 48.5417 74.872 52.4457 72.696C56.4137 70.52 59.5497 67.256 61.8537 62.904L48.8937 59.736C47.8057 61.656 46.3337 63.096 44.4777 64.056C42.6857 65.016 40.5097 65.496 37.9497 65.496C35.7097 65.496 33.8217 65.016 32.2857 64.056C30.7497 63.032 29.5977 61.56 28.8297 59.64C28.0617 57.72 27.6777 55.416 27.6777 52.728C27.7417 49.784 28.1257 47.352 28.8297 45.432C29.5977 43.448 30.7177 41.976 32.1897 41.016C33.6617 40.056 35.4857 39.576 37.6617 39.576C39.3897 39.576 40.8937 39.96 42.1737 40.728C43.4537 41.496 44.4457 42.584 45.1497 43.992C45.8537 45.4 46.2057 47.064 46.2057 48.984C46.2057 49.432 46.0777 50.008 45.8217 50.712C45.6297 51.352 45.3737 51.896 45.0537 52.344L48.5097 47.928H21.2457V55.992H61.5657C61.6937 55.544 61.7577 55 61.7577 54.36C61.7577 53.656 61.7577 52.952 61.7577 52.248C61.7577 47.512 60.8297 43.48 58.9737 40.152C57.1177 36.824 54.4297 34.296 50.9097 32.568C47.3897 30.776 43.0697 29.88 37.9497 29.88C32.8297 29.88 28.3817 30.808 24.6057 32.664C20.8937 34.52 18.0457 37.176 16.0617 40.632C14.0777 44.088 13.0857 48.184 13.0857 52.92C13.0857 57.592 14.1097 61.656 16.1577 65.112C18.2057 68.568 21.0857 71.256 24.7977 73.176C28.5737 75.032 33.0217 75.96 38.1417 75.96ZM136.101 46.584C136.101 43 135.653 39.96 134.757 37.464C133.861 34.968 132.389 33.08 130.341 31.8C128.357 30.456 125.637 29.784 122.181 29.784C119.173 29.784 116.485 30.424 114.117 31.704C111.749 32.984 109.765 34.776 108.165 37.08C107.269 34.712 105.797 32.92 103.749 31.704C101.701 30.424 98.9489 29.784 95.4929 29.784C92.4849 29.784 89.8929 30.456 87.7169 31.8C85.6049 33.144 83.9409 35 82.7249 37.368V30.84H68.7089V75H82.7249V48.12C82.7249 46.328 82.9809 44.824 83.4929 43.608C84.0689 42.392 84.8369 41.496 85.7969 40.92C86.8209 40.28 87.9729 39.96 89.2529 39.96C91.2369 39.96 92.6449 40.664 93.4769 42.072C94.3729 43.416 94.8209 45.432 94.8209 48.12V75H109.413V48.12C109.413 46.328 109.669 44.824 110.181 43.608C110.757 42.392 111.525 41.496 112.485 40.92C113.509 40.28 114.661 39.96 115.941 39.96C117.925 39.96 119.333 40.664 120.165 42.072C121.061 43.416 121.509 45.432 121.509 48.12V75H136.101V46.584ZM142.867 52.92C142.867 57.528 143.955 61.56 146.131 65.016C148.307 68.472 151.315 71.16 155.155 73.08C158.995 75 163.315 75.96 168.115 75.96C172.915 75.96 177.203 75 180.979 73.08C184.819 71.16 187.827 68.472 190.003 65.016C192.243 61.56 193.363 57.528 193.363 52.92C193.363 48.248 192.243 44.184 190.003 40.728C187.827 37.272 184.819 34.584 180.979 32.664C177.203 30.744 172.915 29.784 168.115 29.784C163.315 29.784 158.995 30.744 155.155 32.664C151.315 34.584 148.307 37.272 146.131 40.728C143.955 44.184 142.867 48.248 142.867 52.92ZM157.747 52.92C157.747 50.616 158.227 48.632 159.187 46.968C160.147 45.304 161.395 44.024 162.931 43.128C164.467 42.232 166.195 41.784 168.115 41.784C169.971 41.784 171.667 42.232 173.203 43.128C174.803 44.024 176.051 45.304 176.947 46.968C177.907 48.632 178.387 50.616 178.387 52.92C178.387 55.224 177.907 57.208 176.947 58.872C176.051 60.472 174.803 61.72 173.203 62.616C171.667 63.512 169.971 63.96 168.115 63.96C166.195 63.96 164.467 63.512 162.931 62.616C161.395 61.72 160.147 60.472 159.187 58.872C158.227 57.208 157.747 55.224 157.747 52.92ZM194.9 30.84V42.84H224.468V30.84H194.9ZM202.676 15.48V75H216.596V15.48H202.676ZM226.054 52.92C226.054 57.528 227.142 61.56 229.318 65.016C231.494 68.472 234.502 71.16 238.342 73.08C242.182 75 246.502 75.96 251.302 75.96C256.102 75.96 260.39 75 264.166 73.08C268.006 71.16 271.014 68.472 273.19 65.016C275.43 61.56 276.55 57.528 276.55 52.92C276.55 48.248 275.43 44.184 273.19 40.728C271.014 37.272 268.006 34.584 264.166 32.664C260.39 30.744 256.102 29.784 251.302 29.784C246.502 29.784 242.182 30.744 238.342 32.664C234.502 34.584 231.494 37.272 229.318 40.728C227.142 44.184 226.054 48.248 226.054 52.92ZM240.934 52.92C240.934 50.616 241.414 48.632 242.374 46.968C243.334 45.304 244.582 44.024 246.118 43.128C247.654 42.232 249.382 41.784 251.302 41.784C253.158 41.784 254.854 42.232 256.39 43.128C257.99 44.024 259.238 45.304 260.134 46.968C261.094 48.632 261.574 50.616 261.574 52.92C261.574 55.224 261.094 57.208 260.134 58.872C259.238 60.472 257.99 61.72 256.39 62.616C254.854 63.512 253.158 63.96 251.302 63.96C249.382 63.96 247.654 63.512 246.118 62.616C244.582 61.72 243.334 60.472 242.374 58.872C241.414 57.208 240.934 55.224 240.934 52.92ZM297.575 30.84H283.271V75H297.575V30.84ZM310.343 45.816L316.583 33.432C315.815 32.28 314.695 31.384 313.223 30.744C311.751 30.104 310.215 29.784 308.615 29.784C306.183 29.784 303.847 30.584 301.607 32.184C299.367 33.784 297.543 35.96 296.135 38.712C294.791 41.464 294.119 44.6 294.119 48.12L297.575 53.208C297.575 51.096 297.863 49.304 298.439 47.832C299.015 46.36 299.847 45.24 300.935 44.472C302.023 43.704 303.271 43.32 304.679 43.32C305.959 43.32 307.015 43.544 307.847 43.992C308.743 44.44 309.575 45.048 310.343 45.816ZM323.14 58.968L317.092 68.568C319.076 70.104 321.22 71.512 323.524 72.792C325.828 74.008 328.324 74.968 331.012 75.672C333.764 76.44 336.74 76.824 339.94 76.824C345.188 76.824 349.252 75.64 352.132 73.272C355.076 70.84 356.548 67.256 356.548 62.52C356.548 59.768 355.94 57.56 354.724 55.896C353.572 54.232 352.004 52.856 350.02 51.768C348.1 50.68 345.988 49.72 343.684 48.888C341.508 48.056 339.652 47.384 338.116 46.872C336.644 46.296 335.492 45.688 334.66 45.048C333.892 44.408 333.508 43.608 333.508 42.648C333.508 41.816 333.828 41.144 334.468 40.632C335.172 40.12 336.196 39.864 337.54 39.864C339.524 39.864 341.7 40.44 344.068 41.592C346.436 42.68 348.548 44.088 350.404 45.816L355.588 36.408C353.86 35.128 352.004 34.008 350.02 33.048C348.1 32.088 346.02 31.32 343.78 30.744C341.604 30.168 339.236 29.88 336.676 29.88C333.476 29.88 330.628 30.36 328.132 31.32C325.7 32.28 323.748 33.688 322.276 35.544C320.868 37.4 320.164 39.672 320.164 42.36C320.164 45.176 320.772 47.48 321.988 49.272C323.204 51.064 324.74 52.504 326.596 53.592C328.516 54.616 330.532 55.512 332.644 56.28C335.012 56.984 336.868 57.656 338.212 58.296C339.62 58.936 340.612 59.608 341.188 60.312C341.764 60.952 342.052 61.752 342.052 62.712C342.052 63.736 341.7 64.568 340.996 65.208C340.292 65.848 339.204 66.168 337.732 66.168C336.708 66.168 335.492 65.976 334.084 65.592C332.676 65.144 331.044 64.408 329.188 63.384C327.396 62.296 325.38 60.824 323.14 58.968ZM363.289 68.472C363.289 70.904 364.153 72.984 365.881 74.712C367.609 76.44 369.753 77.304 372.313 77.304C375.001 77.304 377.177 76.44 378.841 74.712C380.505 72.984 381.337 70.904 381.337 68.472C381.337 66.04 380.505 63.96 378.841 62.232C377.177 60.504 375.001 59.64 372.313 59.64C369.753 59.64 367.609 60.504 365.881 62.232C364.153 63.96 363.289 66.04 363.289 68.472ZM391.363 0.119997V75H405.283V0.119997H391.363ZM421.315 30.84L402.403 49.08L423.523 75H440.611L419.779 49.08L438.691 30.84H421.315ZM441.827 78.168C442.147 82.072 443.203 85.496 444.995 88.44C446.787 91.448 449.443 93.784 452.963 95.448C456.547 97.112 461.059 97.944 466.499 97.944C471.043 97.944 475.139 97.112 478.787 95.448C482.435 93.848 485.347 91.288 487.523 87.768C489.763 84.248 490.883 79.672 490.883 74.04V30.84H476.963V74.04C476.963 76.728 476.451 78.968 475.427 80.76C474.467 82.616 473.155 83.992 471.491 84.888C469.827 85.848 467.971 86.328 465.923 86.328C464.067 86.328 462.403 86.008 460.931 85.368C459.459 84.792 458.275 83.896 457.379 82.68C456.547 81.464 456.035 79.96 455.843 78.168H441.827ZM440.867 52.344C440.867 57.272 441.859 61.4 443.843 64.728C445.891 68.056 448.515 70.584 451.715 72.312C454.915 73.976 458.307 74.808 461.891 74.808C465.603 74.808 468.867 73.944 471.683 72.216C474.563 70.424 476.835 67.864 478.499 64.536C480.163 61.144 480.995 57.08 480.995 52.344C480.995 47.544 480.163 43.48 478.499 40.152C476.835 36.824 474.563 34.296 471.683 32.568C468.867 30.776 465.603 29.88 461.891 29.88C458.307 29.88 454.915 30.712 451.715 32.376C448.515 34.04 445.891 36.536 443.843 39.864C441.859 43.192 440.867 47.352 440.867 52.344ZM456.131 52.344C456.131 50.04 456.611 48.088 457.571 46.488C458.531 44.888 459.811 43.672 461.411 42.84C463.011 42.008 464.771 41.592 466.691 41.592C467.907 41.592 469.123 41.816 470.339 42.264C471.555 42.712 472.643 43.384 473.603 44.28C474.627 45.176 475.427 46.296 476.003 47.64C476.643 48.984 476.963 50.552 476.963 52.344C476.963 54.712 476.451 56.696 475.427 58.296C474.403 59.896 473.091 61.112 471.491 61.944C469.955 62.712 468.355 63.096 466.691 63.096C464.771 63.096 463.011 62.68 461.411 61.848C459.811 61.016 458.531 59.8 457.571 58.2C456.611 56.536 456.131 54.584 456.131 52.344Z" fill="#2684FF"/>
</svg>
