<svg width="544" height="84" viewBox="0 0 544 84" fill="none" xmlns="http://www.w3.org/2000/svg">
<path d="M45.2786 46.784C45.2786 49.6427 44.8946 52.1813 44.1267 54.4C43.4013 56.576 42.3347 58.432 40.9266 59.968C39.5613 61.504 37.876 62.6773 35.8706 63.488C33.908 64.256 31.7106 64.64 29.2787 64.64C27.0173 64.64 24.9266 64.256 23.0066 63.488C21.0866 62.6773 19.4226 61.504 18.0146 59.968C16.6066 58.432 15.4973 56.576 14.6866 54.4C13.9186 52.1813 13.5346 49.6427 13.5346 46.784C13.5346 42.9867 14.1746 39.7867 15.4546 37.184C16.7346 34.5387 18.5693 32.5333 20.9586 31.168C23.348 29.76 26.1853 29.056 29.4706 29.056C32.5853 29.056 35.316 29.76 37.6626 31.168C40.052 32.5333 41.908 34.5387 43.2307 37.184C44.596 39.7867 45.2786 42.9867 45.2786 46.784ZM19.3586 46.784C19.3586 49.472 19.7 51.8187 20.3826 53.824C21.108 55.7867 22.2173 57.3013 23.7106 58.368C25.204 59.4347 27.1026 59.968 29.4066 59.968C31.7106 59.968 33.6093 59.4347 35.1026 58.368C36.596 57.3013 37.684 55.7867 38.3666 53.824C39.092 51.8187 39.4546 49.472 39.4546 46.784C39.4546 44.0533 39.092 41.728 38.3666 39.808C37.6413 37.888 36.532 36.416 35.0387 35.392C33.588 34.3253 31.6893 33.792 29.3426 33.792C25.844 33.792 23.3053 34.944 21.7266 37.248C20.148 39.552 19.3586 42.7307 19.3586 46.784ZM82.0286 46.784C82.0286 49.6427 81.6446 52.1813 80.8767 54.4C80.1513 56.576 79.0847 58.432 77.6766 59.968C76.3113 61.504 74.626 62.6773 72.6206 63.488C70.658 64.256 68.4606 64.64 66.0287 64.64C63.7673 64.64 61.6766 64.256 59.7566 63.488C57.8366 62.6773 56.1726 61.504 54.7646 59.968C53.3566 58.432 52.2473 56.576 51.4366 54.4C50.6686 52.1813 50.2846 49.6427 50.2846 46.784C50.2846 42.9867 50.9246 39.7867 52.2046 37.184C53.4846 34.5387 55.3193 32.5333 57.7086 31.168C60.098 29.76 62.9353 29.056 66.2206 29.056C69.3353 29.056 72.066 29.76 74.4126 31.168C76.802 32.5333 78.658 34.5387 79.9807 37.184C81.346 39.7867 82.0286 42.9867 82.0286 46.784ZM56.1086 46.784C56.1086 49.472 56.45 51.8187 57.1326 53.824C57.858 55.7867 58.9673 57.3013 60.4606 58.368C61.954 59.4347 63.8526 59.968 66.1566 59.968C68.4606 59.968 70.3593 59.4347 71.8526 58.368C73.346 57.3013 74.434 55.7867 75.1166 53.824C75.842 51.8187 76.2046 49.472 76.2046 46.784C76.2046 44.0533 75.842 41.728 75.1166 39.808C74.3913 37.888 73.282 36.416 71.7887 35.392C70.338 34.3253 68.4393 33.792 66.0926 33.792C62.594 33.792 60.0553 34.944 58.4766 37.248C56.898 39.552 56.1086 42.7307 56.1086 46.784ZM118.779 46.784C118.779 49.6427 118.395 52.1813 117.627 54.4C116.901 56.576 115.835 58.432 114.427 59.968C113.061 61.504 111.376 62.6773 109.371 63.488C107.408 64.256 105.211 64.64 102.779 64.64C100.517 64.64 98.4266 64.256 96.5066 63.488C94.5866 62.6773 92.9226 61.504 91.5146 59.968C90.1066 58.432 88.9973 56.576 88.1866 54.4C87.4186 52.1813 87.0346 49.6427 87.0346 46.784C87.0346 42.9867 87.6746 39.7867 88.9546 37.184C90.2346 34.5387 92.0693 32.5333 94.4586 31.168C96.848 29.76 99.6853 29.056 102.971 29.056C106.085 29.056 108.816 29.76 111.163 31.168C113.552 32.5333 115.408 34.5387 116.731 37.184C118.096 39.7867 118.779 42.9867 118.779 46.784ZM92.8586 46.784C92.8586 49.472 93.2 51.8187 93.8826 53.824C94.608 55.7867 95.7173 57.3013 97.2106 58.368C98.704 59.4347 100.603 59.968 102.907 59.968C105.211 59.968 107.109 59.4347 108.603 58.368C110.096 57.3013 111.184 55.7867 111.867 53.824C112.592 51.8187 112.955 49.472 112.955 46.784C112.955 44.0533 112.592 41.728 111.867 39.808C111.141 37.888 110.032 36.416 108.539 35.392C107.088 34.3253 105.189 33.792 102.843 33.792C99.344 33.792 96.8053 34.944 95.2266 37.248C93.648 39.552 92.8586 42.7307 92.8586 46.784ZM148.076 23.424C148.673 22.9547 149.463 22.72 150.444 22.72C151.425 22.72 152.236 23.2533 152.876 24.32C153.516 25.3867 153.836 26.9013 153.836 28.864C153.836 30.784 153.431 32.2347 152.62 33.216C151.809 34.1547 150.231 34.624 147.884 34.624C145.58 34.624 143.745 33.9413 142.38 32.576C142.081 31.04 141.932 29.248 141.932 27.2C141.932 20.4587 143.809 15.3813 147.564 11.968L152.364 15.808C149.889 17.856 148.375 20.352 147.82 23.296L148.076 23.424ZM164.076 23.424C164.673 22.9547 165.463 22.72 166.444 22.72C167.425 22.72 168.236 23.2533 168.876 24.32C169.516 25.3867 169.836 26.9013 169.836 28.864C169.836 30.784 169.431 32.2347 168.62 33.216C167.809 34.1547 166.231 34.624 163.884 34.624C161.58 34.624 159.745 33.9413 158.38 32.576C158.081 31.04 157.932 29.248 157.932 27.2C157.932 20.4587 159.809 15.3813 163.564 11.968L168.364 15.808C165.889 17.856 164.375 20.352 163.82 23.296L164.076 23.424ZM203.879 64H198.183V34.368H188.071C187.644 39.7867 187.111 44.416 186.471 48.256C185.831 52.0533 185.02 55.1467 184.039 57.536C183.058 59.9253 181.884 61.6747 180.519 62.784C179.154 63.8933 177.554 64.448 175.719 64.448C175.164 64.448 174.61 64.4053 174.055 64.32C173.543 64.2773 173.116 64.1707 172.775 64V59.776C173.031 59.8613 173.308 59.9253 173.607 59.968C173.906 60.0107 174.204 60.032 174.503 60.032C175.442 60.032 176.295 59.648 177.063 58.88C177.831 58.112 178.514 56.9387 179.111 55.36C179.751 53.7813 180.327 51.7973 180.839 49.408C181.351 46.976 181.799 44.1173 182.183 40.832C182.567 37.5467 182.908 33.8347 183.207 29.696H203.879V64ZM218.079 50.624C218.079 51.008 218.058 51.5627 218.015 52.288C218.015 52.9707 217.994 53.7173 217.951 54.528C217.908 55.296 217.866 56.0427 217.823 56.768C217.78 57.4507 217.738 58.0053 217.695 58.432L236.063 29.696H242.975V64H237.727V43.776C237.727 43.0933 237.727 42.1973 237.727 41.088C237.77 39.9787 237.812 38.8907 237.855 37.824C237.898 36.7147 237.94 35.8827 237.983 35.328L219.743 64H212.767V29.696H218.079V50.624ZM272.82 29.696V34.432H257.524V64H251.892V29.696H272.82ZM290.572 29.12C294.753 29.12 297.846 30.0373 299.852 31.872C301.857 33.7067 302.86 36.6293 302.86 40.64V64H298.764L297.676 59.136H297.42C296.438 60.3733 295.414 61.4187 294.348 62.272C293.324 63.0827 292.129 63.68 290.764 64.064C289.441 64.448 287.82 64.64 285.9 64.64C283.852 64.64 281.996 64.2773 280.332 63.552C278.71 62.8267 277.43 61.7173 276.492 60.224C275.553 58.688 275.084 56.768 275.084 54.464C275.084 51.0507 276.428 48.4267 279.116 46.592C281.804 44.7147 285.942 43.6907 291.532 43.52L297.356 43.328V41.28C297.356 38.4213 296.737 36.4373 295.5 35.328C294.262 34.2187 292.513 33.664 290.252 33.664C288.46 33.664 286.753 33.9413 285.132 34.496C283.51 35.008 281.996 35.6053 280.588 36.288L278.86 32.064C280.353 31.2533 282.124 30.5707 284.172 30.016C286.22 29.4187 288.353 29.12 290.572 29.12ZM292.236 47.424C287.969 47.5947 285.004 48.2773 283.34 49.472C281.718 50.6667 280.908 52.352 280.908 54.528C280.908 56.448 281.484 57.856 282.636 58.752C283.83 59.648 285.345 60.096 287.18 60.096C290.081 60.096 292.492 59.3067 294.412 57.728C296.332 56.1067 297.292 53.632 297.292 50.304V47.232L292.236 47.424ZM357.634 29.696V64H352.002V34.496H334.274V64H328.642V29.696H357.634ZM396.404 46.784C396.404 49.6427 396.02 52.1813 395.252 54.4C394.526 56.576 393.46 58.432 392.052 59.968C390.686 61.504 389.001 62.6773 386.996 63.488C385.033 64.256 382.836 64.64 380.404 64.64C378.142 64.64 376.052 64.256 374.132 63.488C372.212 62.6773 370.548 61.504 369.14 59.968C367.732 58.432 366.622 56.576 365.812 54.4C365.044 52.1813 364.66 49.6427 364.66 46.784C364.66 42.9867 365.3 39.7867 366.58 37.184C367.86 34.5387 369.694 32.5333 372.084 31.168C374.473 29.76 377.31 29.056 380.596 29.056C383.71 29.056 386.441 29.76 388.788 31.168C391.177 32.5333 393.033 34.5387 394.356 37.184C395.721 39.7867 396.404 42.9867 396.404 46.784ZM370.484 46.784C370.484 49.472 370.825 51.8187 371.508 53.824C372.233 55.7867 373.342 57.3013 374.836 58.368C376.329 59.4347 378.228 59.968 380.532 59.968C382.836 59.968 384.734 59.4347 386.228 58.368C387.721 57.3013 388.809 55.7867 389.492 53.824C390.217 51.8187 390.58 49.472 390.58 46.784C390.58 44.0533 390.217 41.728 389.492 39.808C388.766 37.888 387.657 36.416 386.164 35.392C384.713 34.3253 382.814 33.792 380.468 33.792C376.969 33.792 374.43 34.944 372.852 37.248C371.273 39.552 370.484 42.7307 370.484 46.784ZM429.442 64H423.746V34.368H413.634C413.207 39.7867 412.674 44.416 412.034 48.256C411.394 52.0533 410.583 55.1467 409.602 57.536C408.62 59.9253 407.447 61.6747 406.082 62.784C404.716 63.8933 403.116 64.448 401.282 64.448C400.727 64.448 400.172 64.4053 399.618 64.32C399.106 64.2773 398.679 64.1707 398.338 64V59.776C398.594 59.8613 398.871 59.9253 399.17 59.968C399.468 60.0107 399.767 60.032 400.066 60.032C401.004 60.032 401.858 59.648 402.626 58.88C403.394 58.112 404.076 56.9387 404.674 55.36C405.314 53.7813 405.89 51.7973 406.402 49.408C406.914 46.976 407.362 44.1173 407.746 40.832C408.13 37.5467 408.471 33.8347 408.77 29.696H429.442V64ZM451.578 29.056C454.522 29.056 457.039 29.696 459.13 30.976C461.263 32.256 462.884 34.0693 463.994 36.416C465.146 38.72 465.722 41.4293 465.722 44.544V47.936H442.234C442.319 51.8187 443.3 54.784 445.178 56.832C447.098 58.8373 449.764 59.84 453.178 59.84C455.354 59.84 457.274 59.648 458.938 59.264C460.644 58.8373 462.394 58.24 464.186 57.472V62.4C462.436 63.168 460.708 63.7227 459.002 64.064C457.295 64.448 455.268 64.64 452.922 64.64C449.679 64.64 446.799 63.9787 444.282 62.656C441.807 61.3333 439.866 59.3707 438.458 56.768C437.092 54.1227 436.41 50.9013 436.41 47.104C436.41 43.3493 437.028 40.128 438.266 37.44C439.546 34.752 441.316 32.6827 443.578 31.232C445.882 29.7813 448.548 29.056 451.578 29.056ZM451.514 33.664C448.826 33.664 446.692 34.5387 445.114 36.288C443.578 37.9947 442.66 40.384 442.362 43.456H459.834C459.834 41.4933 459.535 39.7867 458.938 38.336C458.34 36.8853 457.423 35.7547 456.186 34.944C454.991 34.0907 453.434 33.664 451.514 33.664ZM496.135 34.432H484.935V64H479.367V34.432H468.295V29.696H496.135V34.432ZM505.692 23.936C505.095 24.4053 504.305 24.64 503.324 24.64C502.343 24.64 501.532 24.1067 500.892 23.04C500.252 21.9733 499.932 20.48 499.932 18.56C499.932 16.5973 500.337 15.1467 501.148 14.208C501.959 13.2267 503.516 12.736 505.82 12.736C508.167 12.736 510.023 13.4187 511.388 14.784C511.687 16.32 511.836 18.112 511.836 20.16C511.836 26.9013 509.959 31.9787 506.204 35.392L501.404 31.552C503.879 29.504 505.393 27.008 505.948 24.064L505.692 23.936ZM521.692 23.936C521.095 24.4053 520.305 24.64 519.324 24.64C518.343 24.64 517.532 24.1067 516.892 23.04C516.252 21.9733 515.932 20.48 515.932 18.56C515.932 16.5973 516.337 15.1467 517.148 14.208C517.959 13.2267 519.516 12.736 521.82 12.736C524.167 12.736 526.023 13.4187 527.388 14.784C527.687 16.32 527.836 18.112 527.836 20.16C527.836 26.9013 525.959 31.9787 522.204 35.392L517.404 31.552C519.879 29.504 521.393 27.008 521.948 24.064L521.692 23.936Z" fill="white"/>
</svg>
