<svg width="584" height="52" viewBox="0 0 584 52" fill="none" xmlns="http://www.w3.org/2000/svg">
<path d="M28.3817 48.64C25.139 48.64 22.4297 48.0213 20.2537 46.784C18.0777 45.5467 16.4137 43.84 15.2617 41.664C14.1097 39.4453 13.4697 36.928 13.3417 34.112C13.299 33.3867 13.2777 32.4693 13.2777 31.36C13.2777 30.208 13.299 29.2907 13.3417 28.608C13.4697 25.7493 14.1097 23.232 15.2617 21.056C16.4563 18.88 18.1417 17.1733 20.3177 15.936C22.4937 14.6987 25.1817 14.08 28.3817 14.08C31.5817 14.08 34.2697 14.6987 36.4457 15.936C38.6217 17.1733 40.2857 18.88 41.4377 21.056C42.6323 23.232 43.2937 25.7493 43.4217 28.608C43.4643 29.2907 43.4857 30.208 43.4857 31.36C43.4857 32.4693 43.4643 33.3867 43.4217 34.112C43.2937 36.928 42.6537 39.4453 41.5017 41.664C40.3497 43.84 38.6857 45.5467 36.5097 46.784C34.3337 48.0213 31.6243 48.64 28.3817 48.64ZM28.3817 43.712C31.027 43.712 33.139 42.88 34.7177 41.216C36.2963 39.5093 37.1497 37.0347 37.2777 33.792C37.3203 33.152 37.3417 32.3413 37.3417 31.36C37.3417 30.3787 37.3203 29.568 37.2777 28.928C37.1497 25.6853 36.2963 23.232 34.7177 21.568C33.139 19.8613 31.027 19.008 28.3817 19.008C25.7363 19.008 23.603 19.8613 21.9817 21.568C20.403 23.232 19.571 25.6853 19.4857 28.928C19.443 29.568 19.4217 30.3787 19.4217 31.36C19.4217 32.3413 19.443 33.152 19.4857 33.792C19.571 37.0347 20.403 39.5093 21.9817 41.216C23.603 42.88 25.7363 43.712 28.3817 43.712ZM64.9397 48.64C61.9103 48.64 59.2863 48.064 57.0677 46.912C54.8917 45.7173 53.2063 44.032 52.0117 41.856C50.817 39.6373 50.177 36.992 50.0917 33.92C50.049 33.28 50.0277 32.4267 50.0277 31.36C50.0277 30.2933 50.049 29.44 50.0917 28.8C50.177 25.728 50.817 23.104 52.0117 20.928C53.2063 18.7093 54.8917 17.024 57.0677 15.872C59.2863 14.6773 61.9103 14.08 64.9397 14.08C67.4143 14.08 69.5263 14.4213 71.2757 15.104C73.0677 15.7867 74.5397 16.6613 75.6917 17.728C76.8437 18.7947 77.697 19.9467 78.2517 21.184C78.849 22.4213 79.169 23.5947 79.2117 24.704C79.2543 25.1307 79.1263 25.472 78.8277 25.728C78.529 25.984 78.1663 26.112 77.7397 26.112H74.6677C74.241 26.112 73.921 26.0267 73.7077 25.856C73.4943 25.6427 73.281 25.3013 73.0677 24.832C72.2997 22.7413 71.2543 21.2693 69.9317 20.416C68.609 19.5627 66.9663 19.136 65.0037 19.136C62.4437 19.136 60.353 19.9253 58.7317 21.504C57.153 23.0827 56.2997 25.6213 56.1717 29.12C56.129 30.656 56.129 32.1493 56.1717 33.6C56.2997 37.1413 57.153 39.7013 58.7317 41.28C60.353 42.816 62.4437 43.584 65.0037 43.584C66.9663 43.584 68.609 43.1573 69.9317 42.304C71.2543 41.4507 72.2997 39.9787 73.0677 37.888C73.281 37.4187 73.4943 37.0987 73.7077 36.928C73.921 36.7147 74.241 36.608 74.6677 36.608H77.7397C78.1663 36.608 78.529 36.736 78.8277 36.992C79.1263 37.248 79.2543 37.5893 79.2117 38.016C79.169 38.912 78.977 39.8293 78.6357 40.768C78.2943 41.7067 77.7397 42.6667 76.9717 43.648C76.2463 44.5867 75.329 45.44 74.2197 46.208C73.1103 46.9333 71.7663 47.5307 70.1877 48C68.6517 48.4267 66.9023 48.64 64.9397 48.64ZM100.444 48.64C97.2015 48.64 94.4922 48.0213 92.3162 46.784C90.1402 45.5467 88.4762 43.84 87.3242 41.664C86.1722 39.4453 85.5322 36.928 85.4042 34.112C85.3615 33.3867 85.3402 32.4693 85.3402 31.36C85.3402 30.208 85.3615 29.2907 85.4042 28.608C85.5322 25.7493 86.1722 23.232 87.3242 21.056C88.5188 18.88 90.2042 17.1733 92.3802 15.936C94.5562 14.6987 97.2442 14.08 100.444 14.08C103.644 14.08 106.332 14.6987 108.508 15.936C110.684 17.1733 112.348 18.88 113.5 21.056C114.695 23.232 115.356 25.7493 115.484 28.608C115.527 29.2907 115.548 30.208 115.548 31.36C115.548 32.4693 115.527 33.3867 115.484 34.112C115.356 36.928 114.716 39.4453 113.564 41.664C112.412 43.84 110.748 45.5467 108.572 46.784C106.396 48.0213 103.687 48.64 100.444 48.64ZM100.444 43.712C103.09 43.712 105.202 42.88 106.78 41.216C108.359 39.5093 109.212 37.0347 109.34 33.792C109.383 33.152 109.404 32.3413 109.404 31.36C109.404 30.3787 109.383 29.568 109.34 28.928C109.212 25.6853 108.359 23.232 106.78 21.568C105.202 19.8613 103.09 19.008 100.444 19.008C97.7988 19.008 95.6655 19.8613 94.0442 21.568C92.4655 23.232 91.6335 25.6853 91.5482 28.928C91.5055 29.568 91.4842 30.3787 91.4842 31.36C91.4842 32.3413 91.5055 33.152 91.5482 33.792C91.6335 37.0347 92.4655 39.5093 94.0442 41.216C95.6655 42.88 97.7988 43.712 100.444 43.712ZM137.194 48.64C133.952 48.64 131.242 48.0213 129.066 46.784C126.89 45.5467 125.226 43.84 124.074 41.664C122.922 39.4453 122.282 36.928 122.154 34.112C122.112 33.3867 122.09 32.4693 122.09 31.36C122.09 30.208 122.112 29.2907 122.154 28.608C122.282 25.7493 122.922 23.232 124.074 21.056C125.269 18.88 126.954 17.1733 129.13 15.936C131.306 14.6987 133.994 14.08 137.194 14.08C140.394 14.08 143.082 14.6987 145.258 15.936C147.434 17.1733 149.098 18.88 150.25 21.056C151.445 23.232 152.106 25.7493 152.234 28.608C152.277 29.2907 152.298 30.208 152.298 31.36C152.298 32.4693 152.277 33.3867 152.234 34.112C152.106 36.928 151.466 39.4453 150.314 41.664C149.162 43.84 147.498 45.5467 145.322 46.784C143.146 48.0213 140.437 48.64 137.194 48.64ZM137.194 43.712C139.84 43.712 141.952 42.88 143.53 41.216C145.109 39.5093 145.962 37.0347 146.09 33.792C146.133 33.152 146.154 32.3413 146.154 31.36C146.154 30.3787 146.133 29.568 146.09 28.928C145.962 25.6853 145.109 23.232 143.53 21.568C141.952 19.8613 139.84 19.008 137.194 19.008C134.549 19.008 132.416 19.8613 130.794 21.568C129.216 23.232 128.384 25.6853 128.298 28.928C128.256 29.568 128.234 30.3787 128.234 31.36C128.234 32.3413 128.256 33.152 128.298 33.792C128.384 37.0347 129.216 39.5093 130.794 41.216C132.416 42.88 134.549 43.712 137.194 43.712ZM185.792 14.912C185.493 14.912 185.237 14.8053 185.024 14.592C184.853 14.3787 184.768 14.1227 184.768 13.824C184.768 13.4827 184.832 13.1413 184.96 12.8L188.352 4.032C188.565 3.60533 188.778 3.264 188.992 3.008C189.248 2.70933 189.653 2.56 190.208 2.56H192.32C192.661 2.56 192.917 2.688 193.088 2.944C193.301 3.2 193.365 3.54133 193.28 3.968L191.872 13.056C191.829 13.568 191.658 14.016 191.36 14.4C191.061 14.7413 190.613 14.912 190.016 14.912H185.792ZM175.552 14.912C175.253 14.912 174.997 14.8053 174.784 14.592C174.613 14.3787 174.528 14.1227 174.528 13.824C174.528 13.4827 174.592 13.1413 174.72 12.8L178.112 4.032C178.325 3.60533 178.56 3.264 178.816 3.008C179.072 2.70933 179.456 2.56 179.968 2.56H182.08C182.421 2.56 182.677 2.688 182.848 2.944C183.061 3.2 183.125 3.54133 183.04 3.968L181.632 13.056C181.589 13.568 181.418 14.016 181.12 14.4C180.821 14.7413 180.394 14.912 179.84 14.912H175.552ZM215.337 48C214.911 48 214.548 47.8507 214.249 47.552C213.951 47.2533 213.801 46.8907 213.801 46.464V44.096C213.801 43.2 214.249 42.7307 215.145 42.688C216.468 42.6453 217.577 42.0267 218.473 40.832C219.369 39.5947 220.052 37.6533 220.521 35.008C220.991 32.32 221.225 28.7787 221.225 24.384V16.192C221.225 15.7653 221.353 15.424 221.609 15.168C221.908 14.8693 222.271 14.72 222.697 14.72H243.049C243.476 14.72 243.817 14.8693 244.073 15.168C244.372 15.424 244.521 15.7653 244.521 16.192V46.528C244.521 46.9547 244.372 47.3173 244.073 47.616C243.817 47.872 243.476 48 243.049 48H239.977C239.551 48 239.209 47.872 238.953 47.616C238.697 47.3173 238.569 46.9547 238.569 46.528V19.84H227.049V25.088C227.049 29.184 226.815 32.704 226.345 35.648C225.876 38.5493 225.151 40.9173 224.169 42.752C223.231 44.544 222.015 45.8667 220.521 46.72C219.071 47.5733 217.343 48 215.337 48ZM255.47 48C255.086 48 254.745 47.872 254.446 47.616C254.19 47.3173 254.062 46.9973 254.062 46.656V16.192C254.062 15.7653 254.19 15.424 254.446 15.168C254.745 14.8693 255.108 14.72 255.534 14.72H258.606C259.033 14.72 259.374 14.8693 259.63 15.168C259.886 15.424 260.014 15.7653 260.014 16.192V43.328L258.35 41.6L277.742 15.68C277.956 15.424 278.19 15.2107 278.446 15.04C278.702 14.8267 279.022 14.72 279.406 14.72H282.35C282.692 14.72 282.99 14.848 283.246 15.104C283.545 15.36 283.694 15.6587 283.694 16V46.528C283.694 46.9547 283.545 47.3173 283.246 47.616C282.99 47.872 282.649 48 282.222 48H279.214C278.745 48 278.382 47.872 278.126 47.616C277.87 47.3173 277.742 46.9547 277.742 46.528V20.992L279.534 20.928L260.014 47.04C259.844 47.2533 259.63 47.4667 259.374 47.68C259.118 47.8933 258.777 48 258.35 48H255.47ZM294.47 48C294.044 48 293.702 47.872 293.446 47.616C293.19 47.36 293.062 47.0187 293.062 46.592V15.936C293.062 15.5947 293.19 15.3173 293.446 15.104C293.745 14.848 294.044 14.72 294.342 14.72H297.606C298.289 14.72 298.822 15.0613 299.206 15.744L310.086 36.096L321.03 15.744C321.414 15.0613 321.948 14.72 322.63 14.72H325.83C326.172 14.72 326.47 14.848 326.726 15.104C326.982 15.3173 327.11 15.5947 327.11 15.936V46.592C327.11 47.0187 326.982 47.36 326.726 47.616C326.47 47.872 326.15 48 325.766 48H322.63C322.204 48 321.862 47.872 321.606 47.616C321.35 47.36 321.222 47.0187 321.222 46.592V21.056L323.462 21.312L313.03 41.024C312.817 41.4507 312.561 41.8347 312.262 42.176C311.964 42.5173 311.516 42.688 310.918 42.688H309.254C308.7 42.688 308.273 42.5173 307.974 42.176C307.676 41.8347 307.398 41.4507 307.142 41.024L297.03 22.272L299.014 22.08V46.592C299.014 47.0187 298.886 47.36 298.63 47.616C298.374 47.872 298.033 48 297.606 48H294.47ZM338.095 48C337.711 48 337.37 47.872 337.071 47.616C336.815 47.3173 336.687 46.9973 336.687 46.656V16.192C336.687 15.7653 336.815 15.424 337.071 15.168C337.37 14.8693 337.733 14.72 338.159 14.72H341.231C341.658 14.72 341.999 14.8693 342.255 15.168C342.511 15.424 342.639 15.7653 342.639 16.192V43.328L340.975 41.6L360.367 15.68C360.581 15.424 360.815 15.2107 361.071 15.04C361.327 14.8267 361.647 14.72 362.031 14.72H364.975C365.317 14.72 365.615 14.848 365.871 15.104C366.17 15.36 366.319 15.6587 366.319 16V46.528C366.319 46.9547 366.17 47.3173 365.871 47.616C365.615 47.872 365.274 48 364.847 48H361.839C361.37 48 361.007 47.872 360.751 47.616C360.495 47.3173 360.367 46.9547 360.367 46.528V20.992L362.159 20.928L342.639 47.04C342.469 47.2533 342.255 47.4667 341.999 47.68C341.743 47.8933 341.402 48 340.975 48H338.095ZM385.863 48C385.437 48 385.074 47.872 384.775 47.616C384.519 47.3173 384.391 46.9547 384.391 46.528V19.84H373.255C372.829 19.84 372.466 19.712 372.167 19.456C371.911 19.1573 371.783 18.7947 371.783 18.368V16.192C371.783 15.7653 371.911 15.424 372.167 15.168C372.466 14.8693 372.829 14.72 373.255 14.72H401.415C401.842 14.72 402.183 14.8693 402.439 15.168C402.738 15.424 402.887 15.7653 402.887 16.192V18.368C402.887 18.7947 402.738 19.1573 402.439 19.456C402.183 19.712 401.842 19.84 401.415 19.84H390.279V46.528C390.279 46.9547 390.151 47.3173 389.895 47.616C389.639 47.872 389.277 48 388.807 48H385.863ZM406.837 48C406.411 48 406.048 47.8507 405.749 47.552C405.451 47.2533 405.301 46.8907 405.301 46.464V44.096C405.301 43.2 405.749 42.7307 406.645 42.688C407.968 42.6453 409.077 42.0267 409.973 40.832C410.869 39.5947 411.552 37.6533 412.021 35.008C412.491 32.32 412.725 28.7787 412.725 24.384V16.192C412.725 15.7653 412.853 15.424 413.109 15.168C413.408 14.8693 413.771 14.72 414.197 14.72H434.549C434.976 14.72 435.317 14.8693 435.573 15.168C435.872 15.424 436.021 15.7653 436.021 16.192V46.528C436.021 46.9547 435.872 47.3173 435.573 47.616C435.317 47.872 434.976 48 434.549 48H431.477C431.051 48 430.709 47.872 430.453 47.616C430.197 47.3173 430.069 46.9547 430.069 46.528V19.84H418.549V25.088C418.549 29.184 418.315 32.704 417.845 35.648C417.376 38.5493 416.651 40.9173 415.669 42.752C414.731 44.544 413.515 45.8667 412.021 46.72C410.571 47.5733 408.843 48 406.837 48ZM458.81 48.64C454.416 48.64 450.917 47.296 448.314 44.608C445.712 41.8773 444.282 38.1653 444.026 33.472C443.984 32.9173 443.962 32.2133 443.962 31.36C443.962 30.464 443.984 29.7387 444.026 29.184C444.197 26.1547 444.901 23.5093 446.138 21.248C447.376 18.944 449.061 17.1733 451.194 15.936C453.37 14.6987 455.909 14.08 458.81 14.08C462.053 14.08 464.762 14.7627 466.938 16.128C469.157 17.4933 470.842 19.4347 471.994 21.952C473.146 24.4693 473.722 27.4133 473.722 30.784V31.872C473.722 32.3413 473.573 32.704 473.274 32.96C473.018 33.216 472.677 33.344 472.25 33.344H450.106C450.106 33.3867 450.106 33.472 450.106 33.6C450.106 33.728 450.106 33.8347 450.106 33.92C450.192 35.6693 450.576 37.312 451.258 38.848C451.941 40.3413 452.922 41.5573 454.202 42.496C455.482 43.4347 457.018 43.904 458.81 43.904C460.346 43.904 461.626 43.6693 462.65 43.2C463.674 42.7307 464.506 42.2187 465.146 41.664C465.786 41.0667 466.213 40.6187 466.426 40.32C466.81 39.7653 467.109 39.4453 467.322 39.36C467.536 39.232 467.877 39.168 468.346 39.168H471.418C471.845 39.168 472.186 39.296 472.442 39.552C472.741 39.7653 472.869 40.0853 472.826 40.512C472.784 41.152 472.442 41.9413 471.802 42.88C471.162 43.776 470.245 44.672 469.05 45.568C467.856 46.464 466.405 47.2107 464.698 47.808C462.992 48.3627 461.029 48.64 458.81 48.64ZM450.106 28.928H467.642V28.736C467.642 26.816 467.28 25.1093 466.554 23.616C465.872 22.1227 464.869 20.9493 463.546 20.096C462.224 19.2 460.645 18.752 458.81 18.752C456.976 18.752 455.397 19.2 454.074 20.096C452.794 20.9493 451.813 22.1227 451.13 23.616C450.448 25.1093 450.106 26.816 450.106 28.736V28.928ZM494.815 48.64C491.785 48.64 489.161 48.064 486.943 46.912C484.767 45.7173 483.081 44.032 481.887 41.856C480.692 39.6373 480.052 36.992 479.967 33.92C479.924 33.28 479.903 32.4267 479.903 31.36C479.903 30.2933 479.924 29.44 479.967 28.8C480.052 25.728 480.692 23.104 481.887 20.928C483.081 18.7093 484.767 17.024 486.943 15.872C489.161 14.6773 491.785 14.08 494.815 14.08C497.289 14.08 499.401 14.4213 501.151 15.104C502.943 15.7867 504.415 16.6613 505.567 17.728C506.719 18.7947 507.572 19.9467 508.127 21.184C508.724 22.4213 509.044 23.5947 509.087 24.704C509.129 25.1307 509.001 25.472 508.703 25.728C508.404 25.984 508.041 26.112 507.615 26.112H504.543C504.116 26.112 503.796 26.0267 503.583 25.856C503.369 25.6427 503.156 25.3013 502.943 24.832C502.175 22.7413 501.129 21.2693 499.807 20.416C498.484 19.5627 496.841 19.136 494.879 19.136C492.319 19.136 490.228 19.9253 488.607 21.504C487.028 23.0827 486.175 25.6213 486.047 29.12C486.004 30.656 486.004 32.1493 486.047 33.6C486.175 37.1413 487.028 39.7013 488.607 41.28C490.228 42.816 492.319 43.584 494.879 43.584C496.841 43.584 498.484 43.1573 499.807 42.304C501.129 41.4507 502.175 39.9787 502.943 37.888C503.156 37.4187 503.369 37.0987 503.583 36.928C503.796 36.7147 504.116 36.608 504.543 36.608H507.615C508.041 36.608 508.404 36.736 508.703 36.992C509.001 37.248 509.129 37.5893 509.087 38.016C509.044 38.912 508.852 39.8293 508.511 40.768C508.169 41.7067 507.615 42.6667 506.847 43.648C506.121 44.5867 505.204 45.44 504.095 46.208C502.985 46.9333 501.641 47.5307 500.063 48C498.527 48.4267 496.777 48.64 494.815 48.64ZM530.127 48.64C527.098 48.64 524.474 48.064 522.255 46.912C520.079 45.7173 518.394 44.032 517.199 41.856C516.005 39.6373 515.365 36.992 515.279 33.92C515.237 33.28 515.215 32.4267 515.215 31.36C515.215 30.2933 515.237 29.44 515.279 28.8C515.365 25.728 516.005 23.104 517.199 20.928C518.394 18.7093 520.079 17.024 522.255 15.872C524.474 14.6773 527.098 14.08 530.127 14.08C532.602 14.08 534.714 14.4213 536.463 15.104C538.255 15.7867 539.727 16.6613 540.879 17.728C542.031 18.7947 542.885 19.9467 543.439 21.184C544.037 22.4213 544.357 23.5947 544.399 24.704C544.442 25.1307 544.314 25.472 544.015 25.728C543.717 25.984 543.354 26.112 542.927 26.112H539.855C539.429 26.112 539.109 26.0267 538.895 25.856C538.682 25.6427 538.469 25.3013 538.255 24.832C537.487 22.7413 536.442 21.2693 535.119 20.416C533.797 19.5627 532.154 19.136 530.191 19.136C527.631 19.136 525.541 19.9253 523.919 21.504C522.341 23.0827 521.487 25.6213 521.359 29.12C521.317 30.656 521.317 32.1493 521.359 33.6C521.487 37.1413 522.341 39.7013 523.919 41.28C525.541 42.816 527.631 43.584 530.191 43.584C532.154 43.584 533.797 43.1573 535.119 42.304C536.442 41.4507 537.487 39.9787 538.255 37.888C538.469 37.4187 538.682 37.0987 538.895 36.928C539.109 36.7147 539.429 36.608 539.855 36.608H542.927C543.354 36.608 543.717 36.736 544.015 36.992C544.314 37.248 544.442 37.5893 544.399 38.016C544.357 38.912 544.165 39.8293 543.823 40.768C543.482 41.7067 542.927 42.6667 542.159 43.648C541.434 44.5867 540.517 45.44 539.407 46.208C538.298 46.9333 536.954 47.5307 535.375 48C533.839 48.4267 532.09 48.64 530.127 48.64ZM562.176 14.912C561.792 14.912 561.514 14.784 561.344 14.528C561.173 14.272 561.109 13.952 561.152 13.568L562.56 4.416C562.645 3.904 562.816 3.47733 563.072 3.136C563.37 2.752 563.818 2.56 564.416 2.56H568.64C568.981 2.56 569.237 2.688 569.408 2.944C569.621 3.15733 569.728 3.392 569.728 3.648C569.728 3.98933 569.642 4.33066 569.472 4.672L566.144 13.44C565.973 13.8667 565.738 14.2293 565.44 14.528C565.184 14.784 564.778 14.912 564.224 14.912H562.176ZM551.936 14.912C551.594 14.912 551.317 14.784 551.104 14.528C550.933 14.272 550.869 13.952 550.912 13.568L552.384 4.416C552.469 3.904 552.64 3.47733 552.896 3.136C553.194 2.752 553.621 2.56 554.176 2.56H558.464C558.762 2.56 558.997 2.688 559.168 2.944C559.381 3.15733 559.488 3.392 559.488 3.648C559.488 3.98933 559.402 4.33066 559.232 4.672L555.904 13.44C555.733 13.8667 555.498 14.2293 555.2 14.528C554.944 14.784 554.538 14.912 553.984 14.912H551.936Z" fill="#8CC84B"/>
</svg>
