<svg width="50" height="51" viewBox="0 0 50 51" fill="none" xmlns="http://www.w3.org/2000/svg">
<path fill-rule="evenodd" clip-rule="evenodd" d="M29.1268 48.9784L25.6197 46.9567L25.6167 42.8511L25.6138 38.7455L28.5926 37.0279C30.2309 36.0832 31.6829 35.2415 31.8192 35.1574L32.067 35.0044L32.0469 32.7951L32.0268 30.5859L26.1459 27.1901L20.2651 23.7942L18.9361 24.6036L17.6071 25.413L17.5851 30.1893L17.563 34.9657L13.167 37.4959L8.77109 40.0261L4.38554 37.4931L0 34.9601V29.8493V24.7386L4.38638 22.2046L8.77276 19.6706L12.6966 21.9363C14.8548 23.1825 16.6986 24.2436 16.7939 24.2944C16.9512 24.3782 17.0912 24.3113 18.2928 23.5791L19.6183 22.7713V15.586V8.40065L26.0926 4.66414C29.6534 2.60912 32.6045 0.927715 32.6505 0.927715C32.6965 0.927715 35.6401 2.60502 39.1919 4.65504L45.6496 8.38229V15.9125V23.4428L39.4673 27.0033L33.2851 30.5639L33.282 32.8073L33.279 35.0508L36.2578 36.7717C37.8961 37.7181 39.3479 38.5609 39.4839 38.6446L39.7312 38.7968L39.7116 42.8666L39.692 46.9362L36.5804 48.7327C34.869 49.7208 33.2809 50.6351 33.0513 50.7646L32.6339 51L29.1268 48.9784ZM35.6268 47.8676L38.5171 46.1981L38.4974 42.8335L38.4777 39.4688L35.5951 37.8054C34.0096 36.8905 32.6777 36.1435 32.6353 36.1453C32.5928 36.1472 31.2773 36.89 29.7121 37.7961L26.8661 39.4436V42.8442V46.2449L29.75 47.9097C31.3362 48.8254 32.657 49.5661 32.6852 49.5558C32.7133 49.5455 34.037 48.7858 35.6268 47.8676ZM12.5223 36.2296L16.1652 34.1232V29.8499V25.5766L12.4926 23.4562C10.4728 22.29 8.78035 21.346 8.73178 21.3584C8.68328 21.3707 7.01531 22.32 5.02524 23.4679L1.40698 25.5549L1.40546 29.8438L1.40402 34.1326L5.0279 36.2327C7.021 37.3878 8.70301 38.3335 8.76562 38.3344C8.82824 38.3352 10.5187 37.3881 12.5223 36.2296ZM38.2394 25.4821L43.7522 22.2976V15.9122V9.52683L38.2023 6.32294L32.6525 3.11912L31.2012 3.95478C30.4031 4.41446 27.9229 5.84572 25.6897 7.13545L21.6295 9.48038V15.9125V22.3448L27.1317 25.5231C30.1579 27.2711 32.6548 28.6936 32.6803 28.6839C32.7059 28.6744 35.2075 27.2335 38.2394 25.4821Z" fill="#F1C761"/>
<path d="M2.69727 33.3721L5.67447 35.0944C7.31193 36.0417 8.69796 36.8187 8.7545 36.8209C8.81104 36.8233 10.2028 36.0489 11.8471 35.1001L14.8369 33.375L14.8356 29.8445L14.8342 26.314L11.8675 24.6064C10.2357 23.6673 8.8439 22.8989 8.77454 22.8989C8.70517 22.8989 7.31011 23.6673 5.67447 24.6064L2.7006 26.314L2.69893 29.8431L2.69727 33.3721Z" fill="#6A3693"/>
<path d="M8.68645 8.46811C8.72842 8.51008 9.4721 8.96399 10.339 9.4768C11.206 9.98961 11.9495 10.4086 11.9912 10.4079C12.0329 10.4072 12.8014 9.98786 13.6988 9.47612L15.3305 8.54559V6.58278V4.62004L13.6988 3.65696C12.8014 3.12722 12.05 2.70147 12.0292 2.7108C12.0083 2.72014 11.2538 3.14324 10.3525 3.65096L8.71385 4.57412L8.66202 6.48298C8.62809 7.73096 8.63659 8.41824 8.68645 8.46811Z" fill="#F1C761"/>
<path d="M27.8896 45.5907L30.2237 46.9376C31.5074 47.6784 32.5977 48.2845 32.6465 48.2847C32.6954 48.2848 33.7801 47.6827 35.057 46.9467L37.3788 45.6086L37.3589 42.8349L37.339 40.0613L34.9955 38.7069L32.6521 37.3525L30.2901 38.716L27.9283 40.0794L27.9089 42.8351L27.8896 45.5907Z" fill="#6A3693"/>
<path d="M42.2349 34.8313L43.8476 35.7858C44.7346 36.3108 45.5115 36.7421 45.5741 36.7444C45.6368 36.7467 46.4223 36.3303 47.3197 35.8192L48.9514 34.8898L48.9716 32.9513L48.9918 31.0128L47.3809 30.0674C46.4949 29.5474 45.7162 29.122 45.6506 29.122C45.5849 29.122 44.811 29.5291 43.9307 30.0268L42.3303 30.9318L42.2831 31.4308C42.2572 31.7053 42.2357 32.5828 42.2354 33.3807L42.2349 34.8313Z" fill="#F1C761"/>
<path d="M23.0718 21.4424L27.8501 24.2006C30.4782 25.7177 32.6391 26.9589 32.6523 26.9589C32.692 26.9589 42.0376 21.5582 42.1399 21.4762C42.2142 21.4166 42.2344 20.2079 42.2334 15.8882L42.2319 10.3763L37.445 7.61615C33.1681 5.15009 32.6406 4.8655 32.4944 4.9448C32.4043 4.9936 30.2474 6.23703 27.7012 7.70799L23.0718 10.3824V15.9124V21.4424Z" fill="#6A3693"/>
</svg>
