<svg width="48" height="49" viewBox="0 0 48 49" fill="none" xmlns="http://www.w3.org/2000/svg">
<rect x="0.5" y="1" width="47" height="47" rx="23.5" stroke="white" stroke-opacity="0.295743"/>
<path fill-rule="evenodd" clip-rule="evenodd" d="M24 12.5C19.802 12.5 16 15.903 16 20.102C16 23.0725 17.4438 24.7791 19.1322 26.7748C20.9923 28.9733 23.1493 31.5229 24 36.5C24.8507 31.5229 27.0077 28.9733 28.8678 26.7748C30.5562 24.7791 32 23.0725 32 20.102C32 15.903 28.199 12.5 24 12.5ZM24 14.5C27.196 14.5 30 17.118 30 20.102C30 22.339 28.9429 23.5889 27.3431 25.4806L27.341 25.483C26.263 26.757 25.038 28.205 24 30.18C22.963 28.2059 21.7394 26.7598 20.6621 25.4867L20.659 25.483L20.6569 25.4806C19.0571 23.5889 18 22.339 18 20.102C18 17.118 20.804 14.5 24 14.5ZM21 20.5C21 22.157 22.343 23.5 24 23.5C25.657 23.5 27 22.157 27 20.5C27 18.843 25.657 17.5 24 17.5C22.343 17.5 21 18.843 21 20.5Z" fill="#F1C761"/>
</svg>
