<svg width="164" height="62" viewBox="0 0 164 62" fill="none" xmlns="http://www.w3.org/2000/svg">
<path fill-rule="evenodd" clip-rule="evenodd" d="M24.4751 1.99264L21.5281 3.69142L21.5257 7.14138L21.5232 10.5913L24.0263 12.0346C25.403 12.8284 26.6231 13.5357 26.7376 13.6064L26.9458 13.7349L26.9289 15.5914L26.912 17.4478L21.9703 20.3013L17.0287 23.1549L15.9119 22.4747L14.7952 21.7945L14.7767 17.781L14.7581 13.7675L11.0642 11.6413L7.37032 9.51519L3.68516 11.6437L0 13.7721V18.0667V22.3613L3.68586 24.4906L7.37172 26.6199L10.669 24.716C12.4825 23.6689 14.0317 22.7772 14.1119 22.7345C14.244 22.6641 14.3617 22.7203 15.3714 23.3356L16.4852 24.0144V30.0522V36.09L21.9255 39.2298C24.9177 40.9566 27.3974 42.3695 27.4362 42.3695C27.4748 42.3695 29.9483 40.96 32.9328 39.2374L38.3592 36.1054V29.7778V23.4501L33.1643 20.4582L27.9694 17.4663L27.9668 15.5811L27.9643 13.6959L30.4673 12.2499C31.844 11.4546 33.0639 10.7464 33.1782 10.676L33.386 10.5482L33.3696 7.12837L33.353 3.70863L30.7384 2.19907C29.3003 1.36876 27.9659 0.600487 27.7729 0.491692L27.4222 0.293869L24.4751 1.99264ZM29.9371 2.92602L32.3658 4.32889L32.3493 7.15618L32.3327 9.98347L29.9105 11.3812C28.5782 12.15 27.459 12.7777 27.4233 12.7762C27.3876 12.7747 26.2823 12.1505 24.9669 11.3891L22.5755 10.0047V7.14712V4.28954L24.9988 2.89062C26.3317 2.12121 27.4416 1.49879 27.4652 1.50746C27.4889 1.51607 28.6012 2.15443 29.9371 2.92602ZM10.5225 12.7054L13.5836 14.4754V18.0663V21.6571L10.4975 23.4388C8.80023 24.4188 7.3781 25.212 7.33729 25.2016C7.29653 25.1912 5.89494 24.3936 4.2227 23.429L1.18228 21.6753L1.181 18.0714L1.17979 14.4675L4.22493 12.7028C5.89972 11.7322 7.31312 10.9375 7.36573 10.9367C7.41834 10.936 8.83887 11.7319 10.5225 12.7054ZM32.1325 21.7365L36.7649 24.4124V29.778V35.1436L32.1013 37.8359L27.4378 40.528L26.2183 39.8258C25.5476 39.4396 23.4635 38.2369 21.587 37.1531L18.1752 35.1827V29.7778V24.3728L22.7987 21.7021C25.3416 20.2332 27.4397 19.0379 27.4612 19.046C27.4826 19.054 29.5847 20.2648 32.1325 21.7365Z" fill="#F1C761"/>
<path d="M2.2666 15.1067L4.76833 13.6594C6.14429 12.8634 7.30897 12.2105 7.35648 12.2086C7.40399 12.2066 8.57345 12.8574 9.95521 13.6547L12.4675 15.1043L12.4664 18.0709L12.4652 21.0375L9.9723 22.4724C8.60113 23.2616 7.4316 23.9073 7.37332 23.9073C7.31503 23.9073 6.14276 23.2616 4.76833 22.4724L2.26941 21.0375L2.268 18.0721L2.2666 15.1067Z" fill="#6A3693"/>
<path d="M7.29916 36.0333C7.33443 35.9981 7.95934 35.6167 8.68781 35.1857C9.41635 34.7548 10.0411 34.4027 10.0761 34.4033C10.1112 34.404 10.7569 34.7563 11.511 35.1863L12.8821 35.9682V37.6176V39.2669L11.511 40.0761C10.7569 40.5213 10.1256 40.879 10.108 40.8712C10.0905 40.8633 9.45652 40.5078 8.69916 40.0812L7.32218 39.3054L7.27863 37.7014C7.25012 36.6528 7.25726 36.0752 7.29916 36.0333Z" fill="#F1C761"/>
<path d="M23.4358 4.83936L25.3971 3.70752C26.4758 3.08504 27.392 2.57569 27.433 2.57556C27.4741 2.5755 28.3856 3.08141 29.4585 3.69987L31.4095 4.82425L31.3928 7.155L31.376 9.4857L29.4068 10.6238L27.4376 11.7619L25.4529 10.6161L23.4683 9.47046L23.452 7.15488L23.4358 4.83936Z" fill="#6A3693"/>
<path d="M35.4895 13.8804L36.8447 13.0784C37.59 12.6372 38.2429 12.2748 38.2955 12.2729C38.3481 12.2709 39.0082 12.6208 39.7623 13.0503L41.1334 13.8313L41.1503 15.4602L41.1674 17.0891L39.8137 17.8836C39.0692 18.3205 38.4149 18.678 38.3597 18.678C38.3046 18.678 37.6542 18.3358 36.9145 17.9176L35.5697 17.1572L35.5301 16.7378C35.5083 16.5072 35.4902 15.7698 35.4899 15.0994L35.4895 13.8804Z" fill="#F1C761"/>
<path d="M19.3867 25.131L23.4019 22.8133C25.6103 21.5385 27.4261 20.4955 27.4372 20.4955C27.4705 20.4955 35.3237 25.0337 35.4096 25.1026C35.4721 25.1527 35.489 26.1683 35.4881 29.7981L35.4869 34.4298L31.4645 36.7492C27.8706 38.8214 27.4274 39.0605 27.3045 38.9939C27.2288 38.9529 25.4164 37.908 23.2768 36.672L19.3867 34.4247V29.7779V25.131Z" fill="#6A3693"/>
<path d="M54.0161 37.712V7.68346H59.5108V37.712H54.0161Z" fill="white"/>
<path d="M72.3319 37.712V12.102H63.5748V7.68346H86.6267V12.102H77.8266V37.712H72.3319Z" fill="white"/>
<path d="M103.215 38.2268C100.182 38.2268 97.5773 37.5833 95.4023 36.2964C93.2273 34.9809 91.5531 33.1648 90.3798 30.8484C89.2065 28.5033 88.6198 25.8007 88.6198 22.7406C88.6198 19.6806 89.2065 16.978 90.3798 14.6329C91.5531 12.2878 93.2273 10.4575 95.4023 9.14199C97.5773 7.82645 100.182 7.16869 103.215 7.16869C106.821 7.16869 109.769 8.06954 112.058 9.87126C114.376 11.6444 115.821 14.1468 116.394 17.3784H110.341C109.969 15.7483 109.168 14.4756 107.937 13.5605C106.735 12.6167 105.132 12.1448 103.129 12.1448C100.353 12.1448 98.1782 13.0886 96.6042 14.9761C95.0302 16.8636 94.2433 19.4518 94.2433 22.7406C94.2433 26.0295 95.0302 28.6177 96.6042 30.5052C98.1782 32.3641 100.353 33.2935 103.129 33.2935C105.132 33.2935 106.735 32.8646 107.937 32.0066C109.168 31.12 109.969 29.9046 110.341 28.3603H116.394C115.821 31.4489 114.376 33.8655 112.058 35.61C109.769 37.3545 106.821 38.2268 103.215 38.2268Z" fill="white"/>
<path d="M125.175 38.0286L122.164 37.8011L122.051 37.8341L121.654 42.3662L121.398 46.1211L121.146 50.7334L121.122 52.3353L121.493 55.2942L121.454 57.2683C121.341 57.8901 120.458 57.64 120.031 57.4373C119.914 57.3732 119.775 56.9801 119.72 56.7917L119.58 54.6244L119.653 49.8188L119.929 43.6046L120.123 40.481C120.187 40.3642 120.091 39.3864 120.034 38.9121L118.871 39.1283C118.239 39.0668 117.349 38.9581 117.118 38.1664C116.934 37.5332 119.451 36.6284 120.733 36.2552C121.973 35.7959 125.091 36.3356 126.495 36.6628C128.79 37.4667 130.581 39.6029 131.19 40.5706L132.009 42.5403L132.258 43.8172L132.286 46.0174L132.214 47.8784L132.044 49.4001L131.582 50.7615L131.166 51.8638L130.799 52.707L130.478 53.291L129.596 54.8972L128.729 56.1312L127.329 57.643L125.976 58.8956L124.171 60.28C123.191 60.958 121.511 60.973 120.793 60.8957L119.738 60.2216L119.022 59.4486L118.923 59.1093L118.97 58.8502L119.084 58.8173C121.329 60.1261 123.544 58.8271 124.37 58.0139L126.703 55.4943L128.344 53.5445L129.612 51.5804L130.343 49.0366C131.356 42.068 128.519 39.2628 126.974 38.7314L125.175 38.0286Z" fill="#F1C761" stroke="#F1C761" stroke-width="0.317215"/>
<path d="M142.534 48.8181L142.275 48.7708C142.189 48.7551 142.009 48.701 141.983 48.6105C141.957 48.52 141.617 48.758 141.451 48.8883L140.31 50.4472C138.813 51.3738 137.874 50.7885 137.591 50.3801C137.109 49.7354 136.939 48.2801 136.914 47.6331C136.873 47.1544 137.208 47.0977 137.381 47.1292C138.055 47.4234 139.537 46.9511 140.194 46.6781C140.853 46.5841 141.817 44.5288 142.216 43.5129C142.484 42.7479 141.663 41.7522 141.218 41.35C140.593 40.5506 139.123 40.8968 138.467 41.1697C137.524 41.6405 136.519 43.0456 136.134 43.6893C135.632 44.3261 135.267 46.1907 135.148 47.0434C135.328 49.3464 135.774 50.4594 135.975 50.7281C137.162 52.4435 138.288 52.6309 138.702 52.5101C139.531 52.6613 140.663 51.9393 141.124 51.5595L141.751 50.7635L142.473 49.4494L142.534 48.8181Z" fill="#F1C761" stroke="#F1C761" stroke-width="0.317215"/>
<path d="M138.52 45.5183C137.875 46.0004 137.151 45.8757 136.87 45.7531L137.092 44.8298C137.104 44.532 137.685 43.6349 137.974 43.2236C138.502 42.6773 139.325 42.6666 139.67 42.7296C140.59 42.8544 140.188 43.8056 139.872 44.2656L138.52 45.5183Z" fill="#222121" stroke="#F1C761" stroke-width="0.317215"/>
<path d="M146.169 43.3193C145.619 42.1055 144.571 40.9221 144.116 40.4822L143.663 40.6139C142.992 41.0056 143.292 41.867 143.526 42.2487L144.472 43.8133L146.073 46.7822C146.205 47.2345 147.321 48.2589 147.862 48.7146L148.428 48.5499L148.541 48.517C148.722 48.4643 149.365 47.1322 149.663 46.4728L150.833 44.1694L151.833 40.4431C152.218 39.7422 151.903 39.2779 151.697 39.1333C151.32 38.8505 150.959 39.2665 150.825 39.5098C150.58 39.6793 148.987 44.0116 148.222 46.1565L147.882 46.2553C147.611 46.3343 146.627 44.3309 146.169 43.3193Z" fill="#F1C761" stroke="#F1C761" stroke-width="0.317215"/>
<path d="M160.172 38.9892C159.004 38.3479 159.202 37.0634 159.448 36.5013L159.189 36.454L158.27 37.0897C157.896 37.4928 157.438 38.0269 157.256 38.2435C156.2 39.3361 156.297 40.5674 156.477 41.0464C156.455 41.642 157.943 42.9913 158.691 43.5915C159.783 44.6474 159.877 45.6996 159.787 46.0938C159.429 46.8851 157.907 47.5001 157.191 47.7086C155.898 47.987 154.783 47.3056 154.388 46.9301L153.931 46.2043L154.27 46.1055C156.513 46.7284 157.586 45.8353 157.842 45.3108C158.125 44.934 156.657 43.4886 155.888 42.813C154.848 41.9381 154.507 40.598 154.466 40.0373L154.976 38.4168C155.025 37.9118 156.486 36.3005 157.21 35.558C157.685 34.8308 159.12 34.6747 159.778 34.6875C160.762 34.6955 161.121 35.6461 161.177 36.1204C161.399 36.5464 161.083 37.906 160.898 38.5325C160.822 38.9471 160.383 39.0097 160.172 38.9892Z" fill="#F1C761" stroke="#F1C761" stroke-width="0.317215"/>
</svg>
